# xmcd
#
# Track frame offsets: 
#        150
#        28405
#        51135
#        75604
#        120157
#        122485
#        129229
#        143020
#        155144
#        163389
#        180106
#        188261
#        208464
#        214050
#        231639
#
# Disc length: 3132 seconds
#
# Revision: 0
# Processed by: cddbd v1.5.2PL0 Copyright (c) Steve Scherf et al.
# Submitted via: ExactAudioCopy v0.95b3
#
DISCID=cf0c3a0f
DTITLE=Jimi Hendrix  - Straight Ahead Spotlights the Year 1968 (audio 
DTITLE=edition) - APE
DYEAR=1900
DGENRE=
TTITLE0=1968 Collage
TTITLE1=Red House (Washington Hilton Hotel, March 1968)
TTITLE2=Little Wing Jam (Cafe Au GO GO, NYC, March 1968)
TTITLE3=Hear My Train A Comin' (Fillmore East, NYC, May 1968)
TTITLE4=What Have We Learned About LSD?
TTITLE5=End of pt.1
TTITLE6=Voodoo Chile (Record Plant, NYC, May 1968)
TTITLE7=Little Miss Strange (Record Plant, NYC, April 1968)
TTITLE8=Long Hot Summer Night (Jimi's NY apartment, early 1968)
TTITLE9=Gypsy Eyes (Record Plant, NYC, April 1968)
TTITLE10=Rainy Day Jam (Record Plant, NYC, June 1968)
TTITLE11=House Burning Down (Record Plant, NYC, May 1968)
TTITLE12=Yes I Need Someone (TTG, Hollywood, CA, October 1968)
TTITLE13=Electric Church - Gloria - Mr. Bad Luck (TTG, Hollywood, CA, 
TTITLE13=October 1968)
TTITLE14=End of pt.2
EXTD=
EXTT0=
EXTT1=
EXTT2=
EXTT3=
EXTT4=
EXTT5=
EXTT6=
EXTT7=
EXTT8=
EXTT9=
EXTT10=
EXTT11=
EXTT12=
EXTT13=
EXTT14=
PLAYORDER=
